# xmcd
#
# Track frame offsets:
# 150
# 32636
# 59558
# 86124
# 107759
# 130962
# 156995
# 179541
# 206474
# 233164
# 256797
# 284291
# 301655
# 318927
#
# Disc length: 4441 seconds
#
#
# Revision: 2
# Processed by: cddbd v1.5.1PL0 Copyright (c) Steve Scherf et al.
# Submitted via: FreeRIP 2.943 
#
DISCID=bf11570e
DTITLE=Yanni  雅尼 - ON FLAME GROUND在神圣的土地上（1）
DYEAR=1900
DGENRE=
TTITLE0=On sacred ground  在神圣的土地上
TTITLE1=The flame wethzn  火焰中
TTITLE2=Midnght hymn  午夜圣歌
TTITLE3=November sky  十一月天空
TTITLE4=With an orchid  和兰花在一起
TTITLE5=Wishing well  美好心愿
TTITLE6=A walk in the rain  步行在雨天
TTITLE7=High land  高地
TTITLE8=If i could tell you   如果我告诉你`
TTITLE9=In your eyes  在你眼里`
TTITLE10=Reason for razn bows  为幻想找理由
TTITLE11=In the morning light  在晨光里
TTITLE12=So long my friend
TTITLE13=A i most whisper
EXTD=
EXTT0=
EXTT1=
EXTT2=
EXTT3=
EXTT4=
EXTT5=
EXTT6=
EXTT7=
EXTT8=
EXTT9=
EXTT10=
EXTT11=
EXTT12=
EXTT13=
PLAYORDER=
